<?xml version="1.0" encoding="utf-8"?>
<!-- Generator: Adobe Illustrator 16.0.0, SVG Export Plug-In . SVG Version: 6.00 Build 0)  -->
<!DOCTYPE svg PUBLIC "-//W3C//DTD SVG 1.1//EN" "http://www.w3.org/Graphics/SVG/1.1/DTD/svg11.dtd">
<svg version="1.1" id="Layer_1" xmlns="http://www.w3.org/2000/svg" xmlns:xlink="http://www.w3.org/1999/xlink" x="0px" y="0px"
	 width="950px" height="100px" viewBox="0 0 1000.059 200" enable-background="new 0 0 1000.059 200" xml:space="preserve">
<g>
	<rect x="-2.742" y="4.42" fill="none" width="140.458" height="125.954"/>
	<text transform="matrix(1 0 0 1 -2.7422 116.5781)" font-family="'radion'" font-size="160">r</text>
	<rect x="504.703" y="4.42" fill="none" width="146.298" height="125.954"/>
	<text transform="matrix(1 0 0 1 504.7031 116.5781)" font-family="'radion'" font-size="160">n</text>
	<g>
		<path d="M352.812,5.964h13.156L322,114.865l-1.797,0.022h-1.821L274.438,5.964h13.129l32.723,81.438L352.812,5.964z"/>
	</g>
	<g>
		<g>
			<path d="M861.103,5.602h13.156L830.29,114.504l-1.797,0.021h-1.821L782.728,5.602h13.129l32.723,81.438L861.103,5.602z"/>
		</g>
		<g>
			<path d="M939.398,5.602h13.156l-43.969,108.901l-1.797,0.022h-1.82L861.023,5.602h13.129l32.723,81.438L939.398,5.602z"/>
		</g>
	</g>
	<g>
		<rect x="142.333" y="4.42" width="112.595" height="12.214"/>
		<rect x="142.333" y="55.183" width="112.595" height="12.214"/>
		<rect x="142.333" y="103.581" width="112.595" height="12.214"/>
	</g>
	<g>
		<rect x="385.479" y="6.057" width="112.595" height="12.214"/>
		<rect x="385.479" y="56.82" width="112.595" height="12.213"/>
		<rect x="385.479" y="105.218" width="112.595" height="12.213"/>
	</g>
	<g>
		<rect x="650.623" y="5.196" width="112.595" height="12.214"/>
		<rect x="650.623" y="55.959" width="112.595" height="12.213"/>
		<rect x="650.623" y="104.357" width="112.595" height="12.213"/>
	</g>
</g>
</svg>
